HIERARCHY
ROOT Hips
{
	OFFSET 0.000000 0.000000 0.000000 
	CHANNELS 6 Xposition Yposition Zposition Yrotation Zrotation Xrotation 
	JOINT Lumbar
	{
		OFFSET 0.000000 0.000000 0.000000 
		CHANNELS 3 Zrotation Xrotation Yrotation
		JOINT Neck
		{
			OFFSET 0.000000 0.445665 0.000000 
			CHANNELS 3 Zrotation Xrotation Yrotation
			End Site
			{
				OFFSET 0.000000 0.227535 0.000000 
			}
		}
		JOINT RightShoulder
		{
			OFFSET 0.019635 0.377685 0.194865 
			CHANNELS 3 Zrotation Xrotation Yrotation
			JOINT RightElbow
			{
				OFFSET 0.000000 -0.243375 0.000000 
				CHANNELS 2 Zrotation Yrotation
				JOINT RightWrist
				{
					OFFSET 0.000000 -0.264825 0.000000 
					CHANNELS 2 Zrotation Xrotation
					End Site
					{
						OFFSET 0.006600 -0.176220 0.000990 
					}
				}
			}
		}
		JOINT LeftShoulder
		{
			OFFSET 0.019635 0.377685 -0.194865 
			CHANNELS 3 Zrotation Xrotation Yrotation
			JOINT LeftElbow
			{
				OFFSET 0.000000 -0.243375 0.000000 
				CHANNELS 2 Zrotation Yrotation
				JOINT LeftWrist
				{
					OFFSET 0.000000 -0.264825 0.000000 
					CHANNELS 2 Zrotation Xrotation
					End Site
					{
						OFFSET 0.006600 -0.176220 -0.000990 
					}
				}
			}
		}
	}
	JOINT RightHip
	{
		OFFSET 0.052140 -0.069960 0.075570 
		CHANNELS 3 Zrotation Xrotation Yrotation
		JOINT RightKnee
		{
			OFFSET 0.000000 -0.402270 0.000000 
			CHANNELS 1 Zrotation
			JOINT RightAnkle
			{
				OFFSET 0.000000 -0.404085 0.000000 
				CHANNELS 3 Zrotation Xrotation Yrotation
				End Site
				{
					OFFSET 0.204105 -0.089430 0.008415 
				}
			}
		}
	}
	JOINT LeftHip
	{
		OFFSET 0.052140 -0.069960 -0.075570 
		CHANNELS 3 Zrotation Xrotation Yrotation
		JOINT LeftKnee
		{
			OFFSET 0.000000 -0.402270 0.000000 
			CHANNELS 1 Zrotation
			JOINT LeftAnkle
			{
				OFFSET 0.000000 -0.404085 0.000000 
				CHANNELS 3 Zrotation Xrotation Yrotation
				End Site
				{
					OFFSET 0.204105 -0.089430 -0.008415 
				}
			}
		}
	}
}
MOTION
Frames: 31
Frame Time: 0.02
-0.25089 0.96749 0.06697 569.6041 0 -6.96979 3.16704 12.76599 -6.00245 -58.55625 12.17276 16.20014 92.8118 -72.28854 8.45912 51.71344 83.67546 -1.51418 -6.48512 48.85783 -7.25862 -36.60678 14.18323 -82.23022 -3.07962 4.92824 -2.11655 8.424 2.26274 -8.52782 -12.02397 -1.62416 -7.46427 3.0681 15.25573 4.94363 -16.5364 -2.84297 3.06583 9.99782
-0.25099 0.96756 0.0752 569.16232 0 -7.04888 3.66567 12.62509 -5.66331 -58.19945 11.47423 15.1208 87.19117 -70.05928 2.88162 51.5823 84.38073 -2.06279 -7.39582 48.64719 -6.10282 -36.28519 14.35625 -82.2486 -3.28201 4.97303 -2.04582 8.17287 3.04964 -8.97169 -11.96234 -1.64166 -7.78031 2.52627 14.96124 5.54225 -16.24835 -2.76024 3.09249 10.10019
-0.24998 0.96809 0.08378 568.8607 0 -7.00896 4.03733 12.42417 -5.48854 -57.59155 10.68473 13.90633 81.91767 -67.46251 -2.27062 51.52917 85.38574 -2.07472 -8.32476 48.17026 -4.81193 -35.85999 14.55338 -82.27638 -3.56596 5.02264 -1.85882 7.77975 3.79894 -9.56368 -11.93835 -1.65352 -8.21642 2.10052 14.47348 6.17194 -15.93062 -2.70327 3.1137 10.12707
-0.2494 0.96839 0.09221 568.49187 0 -7.02181 4.45678 12.25414 -5.23471 -57.09552 9.93359 12.75585 76.54942 -65.04318 -7.5396 51.42587 86.35966 -2.38801 -9.22305 47.80735 -3.57519 -35.49696 14.74509 -82.30275 -3.80778 5.07139 -1.71624 7.44835 4.56524 -10.09717 -11.8935 -1.66799 -8.59337 1.6327 14.07173 6.79124 -15.64138 -2.62666 3.13831 10.18412
-0.24915 0.96878 0.10061 568.13475 0 -7.04302 4.92018 12.07234 -4.98638 -56.61287 9.19196 11.58239 70.85254 -62.56719 -13.20089 51.39131 86.93232 -2.46801 -10.2202 47.479 -2.35921 -35.06628 14.9154 -82.31739 -4.07102 5.11448 -1.60928 7.12945 5.33678 -10.59427 -11.86311 -1.68272 -8.99202 1.11009 13.67817 7.41226 -15.26922 -2.58335 3.15771 10.24974
-0.24793 0.96908 0.10915 567.78667 0 -7.01678 5.26059 11.89903 -4.77164 -56.04341 8.41137 10.43289 65.95321 -60.13144 -17.91362 51.22932 88.378 -2.89612 -11.01339 47.01585 -1.07582 -34.75245 15.13433 -82.35864 -4.3088 5.17057 -1.39853 6.7505 6.08902 -11.20487 -11.81173 -1.69529 -9.37366 0.73254 13.22017 8.02831 -15.06896 -2.47733 3.1873 10.28512
-0.24438 0.9691 0.11798 567.44276 0 -6.8975 5.29844 11.76913 -4.59675 -55.26867 7.53049 9.33875 63.09223 -57.83997 -20.15523 50.69878 92.37925 -4.50063 -11.24689 46.21681 0.41175 -34.79872 15.49301 -82.46981 -4.45866 5.26073 -0.95292 6.24158 6.7661 -12.05857 -11.69828 -1.70458 -9.67157 0.73094 12.64787 8.64874 -15.36506 -2.18651 3.24465 10.22825
-0.23989 0.96901 0.12692 567.10165 0 -6.73288 5.21577 11.64844 -4.45401 -54.41948 6.61716 8.28248 61.0451 -55.61365 -21.43816 50.03565 97.20515 -6.45826 -11.27243 45.29573 1.95209 -34.96462 15.89749 -82.60746 -4.57967 5.36386 -0.40243 5.67734 7.42884 -13.02776 -11.56237 -1.7116 -9.94879 0.87156 12.01481 9.25657 -15.83428 -1.83293 3.31278 10.14874
-0.23578 0.96894 0.13581 566.7504 0 -6.58267 5.18382 11.51966 -4.30654 -53.62098 5.728 7.23909 58.68431 -53.39535 -23.12338 49.43115 101.50682 -8.19883 -11.38752 44.44817 3.43426 -35.06853 16.27347 -82.73394 -4.71235 5.46157 0.11454 5.13696 8.11858 -13.96509 -11.43278 -1.71876 -10.2404 0.94664 11.39861 9.85056 -16.21935 -1.51116 3.37747 10.09943
-0.23182 0.969 0.14471 566.43948 0 -6.45359 5.16367 11.40532 -4.1229 -52.74211 4.79344 6.06478 56.09493 -51.00391 -24.94106 48.83766 106.44903 -10.159 -11.52452 43.51469 5.06622 -35.20088 16.68299 -82.85771 -4.85391 5.55772 0.57434 4.59497 8.72444 -14.81813 -11.31814 -1.7295 -10.5168 1.0314 10.81975 10.52669 -16.63112 -1.17521 3.43647 9.96672
-0.22735 0.96876 0.15362 566.0458 0 -6.2724 5.09311 11.26386 -4.0201 -52.01693 3.94992 5.17273 54.17365 -48.99508 -26.25406 48.18709 110.25059 -11.75334 -11.56593 42.73532 6.39612 -35.30381 17.03293 -82.99252 -4.96909 5.6598 1.17855 4.04764 9.49736 -15.87531 -11.17 -1.73233 -10.81638 1.12581 10.15283 11.03059 -17.02256 -0.85504 3.50913 9.99909
-0.22168 0.96773 0.16263 565.40338 0 -5.94955 4.90415 11.04523 -4.13346 -51.72865 3.34089 5.06225 53.87296 -48.01402 -26.46273 47.42327 110.68285 -12.24642 -11.39679 42.40571 6.88522 -35.29748 17.20917 -83.15766 -5.01749 5.77761 2.13744 3.47797 10.77388 -17.43874 -10.90391 -1.71364 -11.20241 1.23292 9.24526 11.04048 -17.36944 -0.58166 3.62388 10.52911
-0.21554 0.96641 0.17164 564.68158 0 -5.57838 4.67131 10.79923 -4.32655 -51.5996 2.82979 5.23292 54.21901 -47.41951 -26.18923 46.6031 109.94025 -12.36226 -11.13821 42.23726 7.06694 -35.25823 17.32334 -83.33166 -5.03986 5.90025 3.23992 2.90983 12.21086 -19.2068 -10.60971 -1.68714 -11.60932 1.34006 8.25497 10.88074 -17.67937 -0.32892 3.75062 11.21902
-0.20964 0.96524 0.1806 564.00685 0 -5.23538 4.46436 10.56611 -4.48128 -51.40299 2.29054 5.2683 54.28471 -46.659 -26.1014 45.80155 109.74588 -12.65717 -10.91865 42.00068 7.38425 -35.23314 17.46449 -83.49753 -5.07471 6.01928 4.28946 2.35519 13.55047 -20.90154 -10.34945 -1.66442 -11.99376 1.43338 7.31098 10.81323 -17.97187 -0.07396 3.86744 11.81314
-0.20359 0.96397 0.18978 563.28148 0 -4.86328 4.22627 10.33158 -4.64447 -51.18458 1.68074 5.3374 54.32446 -45.86188 -26.11738 45.0284 109.52091 -12.93368 -10.69808 41.74019 7.71966 -35.21346 17.61251 -83.68207 -5.1069 6.14558 5.29485 1.73729 14.99718 -22.52363 -10.00221 -1.64067 -12.42947 1.5914 6.32587 10.68361 -18.41753 0.2153 4.00394 12.5067
-0.19776 0.96286 0.19848 562.6482 0 -4.54243 4.04642 10.09319 -4.81069 -51.04884 1.24194 5.40161 54.55777 -45.22928 -25.81987 44.1801 109.06887 -13.15207 -10.46189 41.56677 7.94513 -35.17575 17.73077 -83.82893 -5.13749 6.25667 6.41973 1.25387 16.2536 -24.3362 -9.82579 -1.61718 -12.7672 1.61107 5.41021 10.64046 -18.52985 0.42504 4.10162 13.02813
-0.19247 0.96218 0.206 562.24113 0 -4.3619 4.01964 9.85211 -4.94626 -51.11627 1.24796 5.3915 55.19149 -44.97978 -24.73964 43.17635 108.27983 -13.32014 -10.19812 41.61772 7.92974 -35.07315 17.78294 -83.8745 -5.18175 6.33365 7.88266 1.12819 16.9943 -26.69026 -10.16135 -1.59721 -12.79711 1.26327 4.68443 10.90098 -17.75974 0.4409 4.09386 13.0638
-0.18744 0.96167 0.21301 561.93821 0 -4.23691 4.05684 9.60759 -5.0851 -51.25893 1.42285 5.36485 55.98805 -44.87748 -23.37234 42.09301 107.29751 -13.43699 -9.92368 41.74683 7.81695 -34.95684 17.80715 -83.8811 -5.22352 6.39351 9.45185 1.14045 17.53013 -29.2149 -10.66311 -1.57784 -12.7329 0.77341 4.03568 11.24986 -16.65055 0.37382 4.04574 12.91585
-0.1824 0.96113 0.22019 561.61887 0 -4.09572 4.07774 9.36411 -5.23565 -51.35883 1.52365 5.34071 56.69129 -44.69267 -22.16384 41.02096 106.39861 -13.5647 -9.65963 41.82574 7.75593 -34.86195 17.84304 -83.90178 -5.25856 6.45508 10.94408 1.09871 18.12611 -31.61934 -11.06769 -1.55735 -12.73405 0.33748 3.3667 11.54328 -15.67497 0.33017 4.01293 12.83286
-0.1769 0.96041 0.22766 561.16669 0 -3.91618 4.04396 9.12287 -5.33527 -51.50162 1.61931 5.34858 57.50318 -44.58889 -20.81669 40.04959 105.48055 -13.73468 -9.36999 41.97298 7.65014 -34.70365 17.88014 -83.93681 -5.32475 6.54202 12.56421 1.02082 18.86167 -34.21612 -11.56497 -1.53925 -12.64418 -0.05611 2.6331 11.89624 -14.77899 0.34383 3.99319 12.83205
-0.17243 0.96008 0.23438 561.01641 0 -3.82844 4.13876 8.87528 -5.53821 -51.56936 1.76114 5.28087 58.11392 -44.34425 -19.6985 38.85328 104.56839 -13.80582 -9.13097 41.99337 7.62146 -34.67237 17.9101 -83.93422 -5.32718 6.57252 13.93903 1.05032 19.26221 -36.44393 -11.90614 -1.51756 -12.71671 -0.56836 2.0526 12.14729 -13.64432 0.22147 3.93669 12.61619
-0.17071 0.96087 0.23921 561.67919 0 -3.99707 4.5826 8.62185 -6.04559 -51.42462 2.01729 5.01883 58.16885 -43.68989 -19.26874 37.03039 103.75249 -13.64826 -9.04644 41.65344 7.80506 -35.01383 17.91696 -83.82303 -5.14307 6.44689 14.6287 1.34845 18.73125 -37.66259 -11.80063 -1.47611 -13.29991 -1.40165 1.88404 12.10573 -11.87264 -0.28007 3.7868 11.83564
-0.17002 0.96203 0.2433 562.64128 0 -4.25323 5.15197 8.36044 -6.65192 -51.19913 2.30813 4.6782 58.00587 -42.88409 -19.08344 34.98877 102.94913 -13.3893 -9.01136 41.18154 8.0756 -35.4801 17.91973 -83.67786 -4.89737 6.26603 15.06368 1.74877 17.87975 -38.49338 -11.52821 -1.43278 -14.04246 -2.34399 1.8657 11.95759 -9.88458 -0.91098 3.6017 10.84761
-0.16888 0.96297 0.24771 563.46409 0 -4.45893 5.65794 8.09545 -7.20044 -51.00033 2.56437 4.36508 57.91236 -42.13537 -18.79929 33.06396 102.1242 -13.15738 -8.94625 40.76221 8.32411 -35.87738 17.93149 -83.55761 -4.68691 6.11314 15.60257 2.09856 17.21151 -39.46701 -11.31532 -1.39684 -14.68612 -3.2183 1.77393 11.85213 -8.03488 -1.46703 3.43364 9.96353
-0.16768 0.96414 0.2522 564.30595 0 -4.71215 6.19339 7.85998 -7.80654 -50.84385 2.90687 4.08527 57.94631 -41.44071 -18.45736 31.06302 101.35795 -13.00234 -8.91288 40.37338 8.49581 -36.32668 17.91247 -83.39626 -4.44456 5.94682 16.19526 2.47065 16.37834 -40.58796 -11.17521 -1.33377 -15.4379 -4.17654 1.70713 11.77345 -6.00185 -2.0942 3.25927 9.03047
-0.16684 0.96491 0.25633 565.17573 0 -4.88581 6.69586 7.56212 -8.31214 -50.58237 3.07473 3.7188 57.66517 -40.59664 -18.29231 29.16953 100.47617 -12.66565 -8.82498 39.89315 8.84869 -36.69654 17.95653 -83.31263 -4.25554 5.79649 16.61395 2.81847 15.81418 -41.30758 -10.84413 -1.32623 -16.00402 -4.98278 1.62231 11.61321 -4.30687 -2.60238 3.09089 8.15493
-0.16669 0.96446 0.25967 566.06827 0 -4.82382 7.08085 7.08614 -8.55082 -50.02099 2.76139 3.12392 56.52693 -39.36961 -18.59463 27.6303 99.26569 -11.83711 -8.57736 39.15338 9.68477 -36.82427 18.17904 -83.45483 -4.21534 5.69602 16.61378 3.07645 16.08159 -41.01406 -10.00493 -1.47699 -16.01381 -5.35217 1.45699 11.24733 -3.57359 -2.7542 2.94194 7.4691
-0.16687 0.96359 0.26267 566.97521 0 -4.67758 7.42701 6.5492 -8.67893 -49.36142 2.26986 2.44795 55.08517 -38.00055 -19.0545 26.20753 97.94085 -10.83251 -8.27273 38.33305 10.69745 -36.86625 18.46414 -83.67595 -4.2329 5.61505 16.44681 3.30554 16.63012 -40.32977 -8.98259 -1.68289 -15.83195 -5.56219 1.26709 10.80338 -3.19454 -2.78068 2.8015 6.85294
-0.16692 0.96292 0.26583 567.86181 0 -4.56586 7.78808 6.04523 -8.83413 -48.76652 1.85106 1.81232 53.80865 -36.69744 -19.42632 24.72784 96.67377 -9.91849 -7.9923 37.57515 11.63024 -36.94266 18.71936 -83.85937 -4.23364 5.53041 16.35618 3.54555 17.0439 -39.82261 -8.05734 -1.86057 -15.74221 -5.83842 1.08382 10.39961 -2.67098 -2.86156 2.6611 6.21885
-0.16692 0.96223 0.26893 568.81444 0 -4.47252 8.16595 5.51846 -9.08843 -48.08616 1.46273 1.15178 52.41174 -35.37294 -19.90176 23.25281 95.38245 -8.95563 -7.72064 36.704 12.57463 -37.04312 18.98288 -84.04979 -4.19484 5.42207 16.25466 3.79792 17.47491 -39.30138 -7.06753 -2.05144 -15.63947 -6.14546 0.92404 9.97424 -2.06924 -2.95773 2.50295 5.51948
-0.16709 0.96148 0.2721 569.63244 0 -4.3205 8.49693 5.02515 -9.11143 -47.55907 0.97524 0.5342 51.19333 -34.07409 -20.16327 21.80426 94.11442 -8.05483 -7.41674 36.05092 13.52291 -37.07081 19.24101 -84.24422 -4.24989 5.36826 16.13926 4.01713 17.94219 -38.72494 -6.17128 -2.22806 -15.51286 -6.34818 0.70873 9.57433 -1.7184 -2.99071 2.38428 4.97529
